<?xml version="1.0" encoding="UTF-8" standalone="no"?>
<!DOCTYPE svg PUBLIC "-//W3C//DTD SVG 1.1//EN"
 "http://www.w3.org/Graphics/SVG/1.1/DTD/svg11.dtd">
<!-- Generated by graphviz version 2.38.0 (20140413.2041)
 -->
<!-- Title: %3 Pages: 1 -->
<svg width="604pt" height="260pt"
 viewBox="0.00 0.00 604.22 260.00" xmlns="http://www.w3.org/2000/svg" xmlns:xlink="http://www.w3.org/1999/xlink">
<g id="graph0" class="graph" transform="scale(1 1) rotate(0) translate(4 256)">
<title>%3</title>
<polygon fill="white" stroke="none" points="-4,4 -4,-256 600.224,-256 600.224,4 -4,4"/>
<!-- [root] aws_instance.dev -->
<g id="node1" class="node"><title>[root] aws_instance.dev</title>
<polygon fill="none" stroke="black" points="323.184,-108 208.184,-108 208.184,-72 323.184,-72 323.184,-108"/>
<text text-anchor="middle" x="265.684" y="-86.3" font-family="Times New Roman,serif" font-size="14.00">aws_instance.dev</text>
</g>
<!-- [root] provider.aws -->
<g id="node3" class="node"><title>[root] provider.aws</title>
<polygon fill="none" stroke="black" points="267.684,-36 186.074,-18 267.684,-3.55271e-015 349.294,-18 267.684,-36"/>
<text text-anchor="middle" x="267.684" y="-14.3" font-family="Times New Roman,serif" font-size="14.00">provider.aws</text>
</g>
<!-- [root] aws_instance.dev&#45;&gt;[root] provider.aws -->
<g id="edge1" class="edge"><title>[root] aws_instance.dev&#45;&gt;[root] provider.aws</title>
<path fill="none" stroke="black" d="M266.178,-71.6966C266.399,-63.9827 266.664,-54.7125 266.909,-46.1124"/>
<polygon fill="black" stroke="black" points="270.408,-46.2002 267.195,-36.1043 263.411,-46.0003 270.408,-46.2002"/>
</g>
<!-- [root] var.istest -->
<g id="node4" class="node"><title>[root] var.istest</title>
<polygon fill="none" stroke="black" points="428.684,-36 368.684,-36 368.684,-3.55271e-015 434.684,-3.55271e-015 434.684,-30 428.684,-36"/>
<polyline fill="none" stroke="black" points="428.684,-36 428.684,-30 "/>
<polyline fill="none" stroke="black" points="434.684,-30 428.684,-30 "/>
<text text-anchor="middle" x="401.684" y="-14.3" font-family="Times New Roman,serif" font-size="14.00">var.istest</text>
</g>
<!-- [root] aws_instance.dev&#45;&gt;[root] var.istest -->
<g id="edge2" class="edge"><title>[root] aws_instance.dev&#45;&gt;[root] var.istest</title>
<path fill="none" stroke="black" d="M298.953,-71.8761C317.147,-62.5117 339.875,-50.8136 359.324,-40.803"/>
<polygon fill="black" stroke="black" points="360.997,-43.8782 368.287,-36.1898 357.794,-37.6543 360.997,-43.8782"/>
</g>
<!-- [root] aws_instance.prod -->
<g id="node2" class="node"><title>[root] aws_instance.prod</title>
<polygon fill="none" stroke="black" points="463.684,-108 341.684,-108 341.684,-72 463.684,-72 463.684,-108"/>
<text text-anchor="middle" x="402.684" y="-86.3" font-family="Times New Roman,serif" font-size="14.00">aws_instance.prod</text>
</g>
<!-- [root] aws_instance.prod&#45;&gt;[root] provider.aws -->
<g id="edge3" class="edge"><title>[root] aws_instance.prod&#45;&gt;[root] provider.aws</title>
<path fill="none" stroke="black" d="M369.659,-71.8761C348.444,-60.8756 321.018,-46.6547 299.953,-35.732"/>
<polygon fill="black" stroke="black" points="301.548,-32.6167 291.059,-31.1206 298.326,-38.831 301.548,-32.6167"/>
</g>
<!-- [root] aws_instance.prod&#45;&gt;[root] var.istest -->
<g id="edge4" class="edge"><title>[root] aws_instance.prod&#45;&gt;[root] var.istest</title>
<path fill="none" stroke="black" d="M402.437,-71.6966C402.327,-63.9827 402.194,-54.7125 402.071,-46.1124"/>
<polygon fill="black" stroke="black" points="405.571,-46.0533 401.928,-36.1043 398.572,-46.1533 405.571,-46.0533"/>
</g>
<!-- [root] meta.count&#45;boundary (EachMode fixup) -->
<g id="node5" class="node"><title>[root] meta.count&#45;boundary (EachMode fixup)</title>
<ellipse fill="none" stroke="black" cx="180.684" cy="-162" rx="180.868" ry="18"/>
<text text-anchor="middle" x="180.684" y="-158.3" font-family="Times New Roman,serif" font-size="14.00">[root] meta.count&#45;boundary (EachMode fixup)</text>
</g>
<!-- [root] meta.count&#45;boundary (EachMode fixup)&#45;&gt;[root] aws_instance.dev -->
<g id="edge5" class="edge"><title>[root] meta.count&#45;boundary (EachMode fixup)&#45;&gt;[root] aws_instance.dev</title>
<path fill="none" stroke="black" d="M201.26,-144.055C212.039,-135.179 225.408,-124.169 237.169,-114.483"/>
<polygon fill="black" stroke="black" points="239.508,-117.09 245.003,-108.032 235.058,-111.687 239.508,-117.09"/>
</g>
<!-- [root] meta.count&#45;boundary (EachMode fixup)&#45;&gt;[root] aws_instance.prod -->
<g id="edge6" class="edge"><title>[root] meta.count&#45;boundary (EachMode fixup)&#45;&gt;[root] aws_instance.prod</title>
<path fill="none" stroke="black" d="M232.453,-144.676C264.172,-134.675 305.016,-121.796 338.745,-111.161"/>
<polygon fill="black" stroke="black" points="340.025,-114.427 348.51,-108.082 337.92,-107.751 340.025,-114.427"/>
</g>
<!-- [root] provider.aws (close) -->
<g id="node6" class="node"><title>[root] provider.aws (close)</title>
<ellipse fill="none" stroke="black" cx="487.684" cy="-162" rx="108.581" ry="18"/>
<text text-anchor="middle" x="487.684" y="-158.3" font-family="Times New Roman,serif" font-size="14.00">[root] provider.aws (close)</text>
</g>
<!-- [root] provider.aws (close)&#45;&gt;[root] aws_instance.dev -->
<g id="edge7" class="edge"><title>[root] provider.aws (close)&#45;&gt;[root] aws_instance.dev</title>
<path fill="none" stroke="black" d="M439.513,-145.811C407.225,-135.63 364.361,-122.114 329.277,-111.052"/>
<polygon fill="black" stroke="black" points="330.193,-107.671 319.603,-108.002 328.088,-114.347 330.193,-107.671"/>
</g>
<!-- [root] provider.aws (close)&#45;&gt;[root] aws_instance.prod -->
<g id="edge8" class="edge"><title>[root] provider.aws (close)&#45;&gt;[root] aws_instance.prod</title>
<path fill="none" stroke="black" d="M467.108,-144.055C456.329,-135.179 442.96,-124.169 431.199,-114.483"/>
<polygon fill="black" stroke="black" points="433.31,-111.687 423.365,-108.032 428.86,-117.09 433.31,-111.687"/>
</g>
<!-- [root] root -->
<g id="node7" class="node"><title>[root] root</title>
<ellipse fill="none" stroke="black" cx="333.684" cy="-234" rx="49.2915" ry="18"/>
<text text-anchor="middle" x="333.684" y="-230.3" font-family="Times New Roman,serif" font-size="14.00">[root] root</text>
</g>
<!-- [root] root&#45;&gt;[root] meta.count&#45;boundary (EachMode fixup) -->
<g id="edge9" class="edge"><title>[root] root&#45;&gt;[root] meta.count&#45;boundary (EachMode fixup)</title>
<path fill="none" stroke="black" d="M304.184,-219.503C282.162,-209.428 251.657,-195.471 226.475,-183.95"/>
<polygon fill="black" stroke="black" points="227.662,-180.644 217.113,-179.667 224.75,-187.01 227.662,-180.644"/>
</g>
<!-- [root] root&#45;&gt;[root] provider.aws (close) -->
<g id="edge10" class="edge"><title>[root] root&#45;&gt;[root] provider.aws (close)</title>
<path fill="none" stroke="black" d="M363.377,-219.503C386.029,-209.207 417.6,-194.856 443.256,-183.194"/>
<polygon fill="black" stroke="black" points="444.758,-186.356 452.414,-179.032 441.862,-179.984 444.758,-186.356"/>
</g>
</g>
</svg>
